<?xml version="1.0" encoding="UTF-8" standalone="no"?>
<!-- Created with Inkscape (http://www.inkscape.org/) -->

<svg
   width="98.015709mm"
   height="88.974808mm"
   viewBox="0 0 98.015709 88.974808"
   version="1.1"
   id="svg1"
   inkscape:version="1.4 (86a8ad7, 2024-10-11)"
   sodipodi:docname="logo_svg.svg"
   xmlns:inkscape="http://www.inkscape.org/namespaces/inkscape"
   xmlns:sodipodi="http://sodipodi.sourceforge.net/DTD/sodipodi-0.dtd"
   xmlns="http://www.w3.org/2000/svg"
   xmlns:svg="http://www.w3.org/2000/svg">
  <sodipodi:namedview
     id="namedview1"
     pagecolor="#ffffff"
     bordercolor="#000000"
     borderopacity="0.25"
     inkscape:showpageshadow="2"
     inkscape:pageopacity="0.0"
     inkscape:pagecheckerboard="0"
     inkscape:deskcolor="#d1d1d1"
     inkscape:document-units="mm"
     inkscape:zoom="0.68862935"
     inkscape:cx="133.59872"
     inkscape:cy="265.0192"
     inkscape:window-width="1920"
     inkscape:window-height="991"
     inkscape:window-x="-9"
     inkscape:window-y="-9"
     inkscape:window-maximized="1"
     inkscape:current-layer="layer1" />
  <defs
     id="defs1" />
  <g
     inkscape:label="Layer 1"
     inkscape:groupmode="layer"
     id="layer1"
     transform="translate(-57.20989,-68.559893)">
    <g
       id="g132-8-9"
       style="display:inline;fill:#cc0000"
       transform="translate(-228.79011,-172.22668)">
      <path
         id="path105-4-0"
         style="fill:#cc0000;fill-opacity:1;stroke-linecap:round"
         d="m 286.99994,288.99993 c -0.55224,3e-5 -0.99991,0.4477 -0.99994,0.99994 3e-5,0.55224 0.4477,0.99991 0.99994,0.99994 h 16.5256 l 1.45108,-1.99988 z m 27.86135,0 -1.45108,1.99988 h 21.5899 c 0.55224,-3e-5 0.99991,-0.4477 0.99994,-0.99994 -3e-5,-0.55224 -0.4477,-0.99991 -0.99994,-0.99994 z"
         sodipodi:nodetypes="cccccccccccc" />
      <path
         id="path124-0-5"
         style="fill:#cc0000;fill-opacity:1"
         d="m 341.57593,240.79099 c -0.20532,-0.0256 -0.42466,0.0597 -0.57412,0.26561 l -50.34732,69.38285 c -0.35574,0.49023 -0.10424,1.1423 0.48835,1.26762 l 85.29453,18.03921 c 0.48079,0.10168 0.84051,-0.32699 0.65836,-0.78341 l -12.53877,-31.41824 -6.9572,-1.24799 9.07593,22.74022 c 0.45759,1.14651 -0.58698,2.38862 -1.79472,2.1332 L 302.9354,308.06853 c -1.2643,-0.26738 -1.84881,-1.78801 -1.08986,-2.83393 l 36.55281,-50.37315 c 0.27394,-0.37752 0.6713,-0.58474 1.08572,-0.63562 0.13814,-0.017 0.27855,-0.0167 0.41651,5.1e-4 0.55186,0.0688 1.07017,0.40683 1.3007,0.98444 l 6.29626,15.77475 4.32273,-5.35523 -9.75393,-24.44089 c -0.0943,-0.23634 -0.28509,-0.37282 -0.49041,-0.39842 z m 11.7321,28.56725 -4.32273,5.35574 2.89388,7.2502 5.66632,-1.9885 z m 5.53558,13.87047 -5.6658,1.98954 2.67477,6.7014 6.95772,1.24799 z" />
      <path
         style="fill:#cc0000;fill-opacity:1;stroke-linecap:round"
         d="m 328.73523,286.18693 -3.51143,-2.14279"
         id="path118-5-3" />
      <path
         style="fill:#cc0000;fill-opacity:1;stroke-linecap:round"
         d="m 325.48437,283.61719 a 0.5,0.5 0 0 0 -0.6875,0.16601 0.5,0.5 0 0 0 0.16602,0.6875 l 3.51172,2.14258 a 0.5,0.5 0 0 0 0.6875,-0.16601 0.5,0.5 0 0 0 -0.16602,-0.6875 z"
         id="path119-4-9" />
      <path
         style="fill:#cc0000;fill-opacity:1;stroke-linecap:round"
         d="m 331.5869,283.66221 -3.43229,-6.91089"
         id="path116-7-1" />
      <path
         style="fill:#cc0000;fill-opacity:1;stroke-linecap:round"
         d="m 328.31445,276.27734 a 0.5,0.5 0 0 0 -0.38281,0.0254 0.5,0.5 0 0 0 -0.22461,0.67188 l 3.43164,6.91016 a 0.5,0.5 0 0 0 0.66992,0.2246 0.5,0.5 0 0 0 0.22657,-0.66992 l -3.4336,-6.91015 a 0.5,0.5 0 0 0 -0.28711,-0.25196 z"
         id="path117-2-2" />
      <path
         style="fill:#cc0000;fill-opacity:1;stroke-linecap:round"
         d="m 335.06492,282.78478 0.0964,-16.95021"
         id="path114-1-8" />
      <path
         style="fill:#cc0000;fill-opacity:1;stroke-linecap:round"
         d="m 335.16602,265.08398 a 0.75,0.75 0 0 0 -0.75391,0.7461 l -0.0977,16.95117 a 0.75,0.75 0 0 0 0.7461,0.75391 0.75,0.75 0 0 0 0.7539,-0.7461 l 0.0977,-16.95117 a 0.75,0.75 0 0 0 -0.74609,-0.75391 z"
         id="path115-4-8" />
      <path
         style="color:#000000;font-style:normal;font-variant:normal;font-weight:normal;font-stretch:normal;font-size:medium;line-height:normal;font-family:sans-serif;font-variant-ligatures:normal;font-variant-position:normal;font-variant-caps:normal;font-variant-numeric:normal;font-variant-alternates:normal;font-variant-east-asian:normal;font-feature-settings:normal;font-variation-settings:normal;text-indent:0;text-align:start;text-decoration-line:none;text-decoration-style:solid;text-decoration-color:#000000;letter-spacing:normal;word-spacing:normal;text-transform:none;writing-mode:lr-tb;direction:ltr;text-orientation:mixed;dominant-baseline:auto;baseline-shift:baseline;text-anchor:start;white-space:normal;shape-padding:0;shape-margin:0;inline-size:0;clip-rule:nonzero;display:inline;overflow:visible;visibility:visible;isolation:auto;mix-blend-mode:normal;color-interpolation:sRGB;color-interpolation-filters:linearRGB;solid-color:#000000;solid-opacity:1;vector-effect:none;fill:#cc0000;fill-opacity:1;fill-rule:nonzero;stroke:none;stroke-width:2;stroke-linecap:round;stroke-linejoin:miter;stroke-miterlimit:4;stroke-dasharray:none;stroke-dashoffset:0;stroke-opacity:1;-inkscape-stroke:none;paint-order:stroke fill markers;color-rendering:auto;image-rendering:auto;shape-rendering:auto;text-rendering:auto;enable-background:accumulate;stop-color:#000000"
         d="m 356.91992,261.25391 a 0.75,0.75 0 0 0 -0.5039,0.27539 l -17.91211,22.1875 a 0.75,0.75 0 0 0 0.11328,1.05468 0.75,0.75 0 0 0 1.05468,-0.11132 l 17.91211,-22.18946 a 0.75,0.75 0 0 0 -0.11328,-1.05468 0.75,0.75 0 0 0 -0.55078,-0.16211 z"
         id="path123-9-1" />
      <path
         style="fill:#cc0000;fill-opacity:1;stroke:none;stroke-width:2;stroke-linecap:round;paint-order:stroke fill markers"
         d="M 341.42474,287.48963 377,275"
         id="path128-90-8" />
      <path
         style="fill:#cc0000;fill-opacity:1;stroke:none;stroke-width:2;stroke-linecap:round;paint-order:stroke fill markers"
         d="m 376.75195,274.29297 -35.57617,12.48828 a 0.75,0.75 0 0 0 -0.45898,0.95703 0.75,0.75 0 0 0 0.95703,0.45899 l 35.57422,-12.49024 a 0.75,0.75 0 0 0 0.45898,-0.95508 0.75,0.75 0 0 0 -0.95508,-0.45898 z"
         id="path130-3-6" />
      <path
         style="fill:#cc0000;fill-opacity:1;stroke-linecap:round;paint-order:stroke fill markers"
         d="m 342.17578,290.48242 c -0.54365,-0.097 -1.06305,0.26496 -1.16016,0.8086 -0.097,0.54365 0.26496,1.06304 0.8086,1.16015 l 41.01562,7.35743 c 0.54365,0.097 1.06305,-0.26496 1.16015,-0.8086 0.097,-0.54364 -0.26495,-1.06304 -0.80859,-1.16015 z"
         id="path126-03-0" />
      <path
         style="fill:#cc0000;fill-opacity:1;stroke-linecap:round"
         d="m 340.02441,294.94549 19.91239,20.31308"
         id="path112-5-2" />
      <path
         style="fill:#cc0000;fill-opacity:1;stroke-linecap:round"
         d="m 339.5,294.41016 a 0.75,0.75 0 0 0 -0.0117,1.06054 l 19.91211,20.3125 a 0.75,0.75 0 0 0 1.06055,0.0117 0.75,0.75 0 0 0 0.0117,-1.06055 L 340.56055,294.4199 a 0.75,0.75 0 0 0 -1.06055,-0.01 z"
         id="path113-0-4" />
      <path
         style="fill:#cc0000;fill-opacity:1;stroke-linecap:round"
         d="m 336.76781,296.77976 3.66996,15.88534"
         id="path110-7-9" />
      <path
         style="fill:#cc0000;fill-opacity:1;stroke-linecap:round"
         d="m 336.6543,296.29297 a 0.5,0.5 0 0 0 -0.37305,0.59961 l 3.66992,15.88476 a 0.5,0.5 0 0 0 0.59961,0.375 0.5,0.5 0 0 0 0.375,-0.59961 l -3.66992,-15.88476 a 0.5,0.5 0 0 0 -0.60156,-0.375 z"
         id="path111-6-0" />
      <path
         style="fill:#cc0000;fill-opacity:1;stroke-linecap:round"
         d="m 332.57468,296.73174 -4.04424,10.93712"
         id="path108-7-2" />
      <path
         style="fill:#cc0000;fill-opacity:1;stroke-linecap:round"
         d="m 332.74805,296.26367 a 0.5,0.5 0 0 0 -0.64258,0.29492 l -4.04492,10.9375 a 0.5,0.5 0 0 0 0.29687,0.64258 A 0.5,0.5 0 0 0 329,307.8418 l 4.04297,-10.9375 a 0.5,0.5 0 0 0 -0.29492,-0.64063 z"
         id="path109-8-2" />
      <path
         style="fill:#cc0000;fill-opacity:1;stroke-linecap:round"
         d="m 328.88795,293.96364 -5.75727,4.34899"
         id="path106-3-1" />
      <path
         style="fill:#cc0000;fill-opacity:1;stroke-linecap:round"
         d="m 328.95703,293.46875 a 0.5,0.5 0 0 0 -0.37109,0.0957 l -5.75586,4.34961 a 0.5,0.5 0 0 0 -0.0977,0.69922 0.5,0.5 0 0 0 0.69922,0.0977 l 5.75781,-4.34766 a 0.5,0.5 0 0 0 0.0977,-0.70117 0.5,0.5 0 0 0 -0.33008,-0.19336 z"
         id="path107-6-5" />
      <circle
         style="display:inline;fill:#cc0000;fill-opacity:1;stroke:none;stroke-width:3"
         id="path1-1-0-0-4-4-4"
         cx="334.7489"
         cy="290"
         r="5" />
    </g>
  </g>
</svg>
